<svg xmlns="http://www.w3.org/2000/svg" viewBox="0 0 1000 1000"><defs><linearGradient id="a" x1="454.09" x2="454.09" y1="862.41" y2="945.44" gradientUnits="userSpaceOnUse"><stop offset="0" stop-color="#676c72" stop-opacity=".3"/><stop offset=".96" stop-color="#f9f9fa" stop-opacity=".01"/><stop offset="1" stop-color="#fff" stop-opacity="0"/></linearGradient><linearGradient id="b" x1="649.38" x2="649.38" y1="687.72" y2="820.43" gradientTransform="rotate(-.01 -2177.33 1031.134)" gradientUnits="userSpaceOnUse"><stop offset="0" stop-color="#fff"/><stop offset=".41" stop-color="#fdfdfd"/><stop offset=".56" stop-color="#f6f7f7"/><stop offset=".67" stop-color="#ebebec"/><stop offset=".75" stop-color="#dadbdc"/><stop offset=".82" stop-color="#c4c5c7"/><stop offset=".89" stop-color="#a8abae"/><stop offset=".95" stop-color="#898c90"/><stop offset=".99" stop-color="#686c71"/></linearGradient><linearGradient id="c" x1="551.28" x2="693.6" y1="799.25" y2="799.25" gradientUnits="userSpaceOnUse"><stop offset="0" stop-color="#676c72" stop-opacity=".5"/><stop offset=".29" stop-color="#95999d" stop-opacity=".35"/><stop offset="1" stop-color="#fff" stop-opacity="0"/></linearGradient><linearGradient id="d" x1="431.01" x2="506.8" y1="778.91" y2="778.91" gradientUnits="userSpaceOnUse"><stop offset="0" stop-color="#676c72" stop-opacity=".7"/><stop offset=".27" stop-color="#70767c" stop-opacity=".58"/><stop offset=".77" stop-color="#888f97" stop-opacity=".26"/><stop offset="1" stop-color="#959ca5" stop-opacity=".1"/></linearGradient></defs><g style="isolation:isolate"><path fill="#4688f1" d="M774.41 395.76V210l-283-81.68L208.5 210v185.76s-10.7 326.71 283 454.09c293.61-127.38 282.91-454.09 282.91-454.09z"/><path fill="#eff0f2" d="M687.12 738.77h-.38a1.87 1.87 0 0 0 .38 0z"/><path fill="url(#a)" d="M98.1 874.61v-16.05h431.4l195.83.33L810.08 943H258.32l-46.92-46.91-78.25-.35a32.7 32.7 0 0 1-22.49-9.1z"/><path fill="#cdd0d5" d="M558.84 753.1h182.44a6.2 6.2 0 0 1 6.2 6.2v107.79a10 10 0 0 1-10 10H561.36A10.06 10.06 0 0 1 551.29 867V760.65a7.55 7.55 0 0 1 7.55-7.55z"/><path fill="#eff0f2" d="M742 748.82l-84.7-62.35a13.35 13.35 0 0 0-15.87 0l-84.7 62.39a13.36 13.36 0 0 0-5.45 10.77h196.2a13.35 13.35 0 0 0-5.48-10.81z"/><path fill="#fff" fill-opacity=".2" d="M556.72 750l84.7-62.39a13.38 13.38 0 0 1 15.88 0l84.7 62.32a13.29 13.29 0 0 1 5.38 9.65h.07a13.38 13.38 0 0 0-5.45-10.77l-84.7-62.35a13.35 13.35 0 0 0-15.86 0l-84.71 62.39a13.39 13.39 0 0 0-5.45 10.78h.07a13.3 13.3 0 0 1 5.37-9.63z"/><path fill="#fff" d="M576.28 814.38a7.05 7.05 0 0 0 7 7l132.83-.24a7 7 0 0 0 7-7L723 699.3a7 7 0 0 0-7-7l-132.82.22a7.05 7.05 0 0 0-7 7zm-25-54.59v110.89l-.05-110.89z"/><path fill="#eff0f2" d="M647 821.37l2.36-1.47-13.88-8.54-84.18-51.74v.17l.05 110.89a6.66 6.66 0 0 0 5.36 6.26l8.53-5.25z"/><path fill="#dfe1e5" d="M647.06 821.37l-81.78 50.32-8.53 5.25a6.88 6.88 0 0 0 1.29.13h182.85a6.65 6.65 0 0 0 6.61-6.07V759.61z"/><path fill="#eff0f2" d="M647.06 821.37l-81.78 50.32-8.53 5.25a6.88 6.88 0 0 0 1.29.13h3.68l3.56-2.19 81.78-50.32 100.42-61.81v-3.19z"/><g fill="#4688f1"><path d="M647.33 780a16.89 16.89 0 0 1-5.48-.92 14.62 14.62 0 0 1-8.62-8c-3.41-7.73-2.29-17.08 2.8-23.28s15.38-8.38 23.26-4.75l.2.08a2.43 2.43 0 0 1 1.51 2.25V760c0 5.43-.26 10.67-3.35 15.09-2.45 3.49-6.44 4.91-10.32 4.91zm3.6-33.84c-4.33 0-8.64 1.71-11.15 4.77-3.95 4.81-4.8 12.13-2.1 18.22a9.84 9.84 0 0 0 5.78 5.35c3.36 1.18 8 1 10.22-2.19s2.47-7.51 2.47-12.31v-13a15.48 15.48 0 0 0-5.22-.87z"/><path d="M650.44 799.94a39.69 39.69 0 0 1 0-79.38c10.83 0 19.88 3.5 26.18 10.12 7 7.4 10.51 18.51 9.84 31.31-.44 8.38-3.71 14.13-9.21 16.2-2.54.95-9.09 2.69-15.09-1.79-5-3.76-6-8.62-6-16.26a2.43 2.43 0 0 1 4.86 0c0 7.25.9 10 4 12.37 4.07 3 8.68 1.8 10.48 1.13 4.83-1.81 5.87-8.24 6.06-11.91.6-11.45-2.42-21.29-8.52-27.7-5.42-5.72-13.05-8.62-22.65-8.62a34.84 34.84 0 1 0 7.18 68.93 2.43 2.43 0 0 1 1 4.76 39.69 39.69 0 0 1-8.13.84z"/></g><path fill="url(#b)" d="M649.36 819.9l98.11-60.43-96.55-72.29-99.63 72.35 98.07 60.37z" opacity=".3" style="mix-blend-mode:multiply"/><path fill="url(#c)" d="M576.22 721.44v13.08l-19.45 14.33a13.36 13.36 0 0 0-5.45 10.77h.09a7.32 7.32 0 0 0-.09 1l-.05 109.7a6.7 6.7 0 0 0 6.7 6.7h52.27v-81.25l-5.64-3.38-.15-32.6a24.66 24.66 0 0 0-7.23-17.33z"/><rect width="119.59" height="232.44" x="439.6" y="644.31" fill="#bbbfc3" rx="18" ry="18" transform="rotate(-.34 498.249 758.124)"/><rect width="119.59" height="232.53" x="431.59" y="644.3" fill="#dfe1e5" rx="18" ry="18" transform="rotate(-.34 489.823 758.1)"/><path fill="none" stroke="#babfc5" stroke-linecap="round" stroke-linejoin="round" stroke-width="5" d="M473.37 656.56h40.02"/><path fill="#fff" d="M530.52 858.6h-77.64a11.63 11.63 0 0 1-11.63-11.6l-.32-168.2a11.63 11.63 0 0 1 11.63-11.63h77.64a11.63 11.63 0 0 1 11.63 11.63l.32 168.2a11.63 11.63 0 0 1-11.63 11.6z"/><path fill="url(#d)" d="M446.9 680.75L431 681l1.05 178.21a18 18 0 0 0 18.11 17.89l56.63-.2V755.28a35.32 35.32 0 0 0-10.35-25z"/><circle cx="466.83" cy="731.4" r="10.08" fill="#eda606"/><circle cx="493.01" cy="731.4" r="10.08" fill="#fabb05"/><circle cx="519.2" cy="731.4" r="10.08" fill="#fabb05"/><circle cx="466.83" cy="756.71" r="10.08" fill="#eda606"/><circle cx="493.01" cy="756.71" r="10.08" fill="#eda606"/><circle cx="519.2" cy="756.71" r="10.08" fill="#fabb05"/><circle cx="466.83" cy="782.02" r="10.08" fill="#eda606"/><circle cx="493.01" cy="782.02" r="10.08" fill="#eda606"/><circle cx="519.2" cy="782.02" r="10.08" fill="#fabb05"/><circle cx="493.01" cy="807.34" r="10.08" fill="#eda606"/><path fill="#bbbfc3" d="M217.22 672.81H432a18 18 0 0 1 18 18v167.72H217.22a18 18 0 0 1-18-18V690.81a18 18 0 0 1 18-18z"/><path fill="#dfe1e5" d="M211.21 672.81H426a18 18 0 0 1 18 18v167.72H193.21V690.81a18 18 0 0 1 18-18z"/><rect width="229.56" height="163.73" x="203.83" y="683.89" fill="#eff0f2" rx="8" ry="8"/><path fill="#bbbfc3" d="M450 858.51l-258.48.06v19.29L432 877.8a18 18 0 0 0 18-18z"/><path fill="#cdd0d5" d="M90.36 858.56H342v1.3a18 18 0 0 1-18 18H108.36a18 18 0 0 1-18-18v-1.3z"/><path fill="#eff0f2" d="M230 867.35h-38.6a8.54 8.54 0 0 1-8.54-8.54.25.25 0 0 1 .25-.25h55.39a.26.26 0 0 1 .26.27 8.79 8.79 0 0 1-8.76 8.52zM436.22 356H435a5.41 5.41 0 0 0 1.22 0z"/><path fill="#3466b8" d="M499.49 577.82H592a50.22 50.22 0 0 0 50.22-50.22A50.23 50.23 0 0 0 592 477.38h-95z"/><path fill="#fff" d="M370.25 529.94a75.81 75.81 0 1 1 75.8 75.81 75.89 75.89 0 0 1-75.8-75.81z"/><path fill="#3466b8" d="M513 394.74h-92.53a50.22 50.22 0 0 1-50.22-50.22 50.21 50.21 0 0 1 50.22-50.22h95"/><path fill="#fff" d="M566.44 422.66a75.81 75.81 0 1 1 75.81-75.8 75.88 75.88 0 0 1-75.81 75.8z"/><path fill="#eff0f2" d="M428.22 359.26H427a6.31 6.31 0 0 0 1.22 0z"/><path fill="#fff" d="M222.15 834.3a3.36 3.36 0 0 1-3.35-3.36V701.16a3.36 3.36 0 0 1 3.35-3.35h193.69a3.37 3.37 0 0 1 3.36 3.35V830.8a3.5 3.5 0 0 1-3.5 3.5z"/><path fill="#cdd0d5" d="M415.84 700.31a.86.86 0 0 1 .86.85V830.8a1 1 0 0 1-1 1H222.15a.86.86 0 0 1-.85-.86V701.16a.85.85 0 0 1 .85-.85h193.69m0-5H222.15a5.85 5.85 0 0 0-5.85 5.85v129.78a5.86 5.86 0 0 0 5.85 5.86H415.7a6 6 0 0 0 6-6V701.16a5.85 5.85 0 0 0-5.86-5.85z"/><path fill="#df382b" d="M216.3 714.93v-13.77a5.85 5.85 0 0 1 5.85-5.85h193.69a5.85 5.85 0 0 1 5.86 5.85v13.77"/><circle cx="231.75" cy="705.58" r="3.28" fill="#fff"/><g fill="none" stroke="#cdd0d5" stroke-linecap="round" stroke-linejoin="round"><path stroke-width="4.21" d="M337.25 731.89h61.34m-61.34 11.83h61.34m-61.34 11.83h61.34m-61.34 11.84h61.34m-61.34 11.83h61.34m-61.34 11.83h61.34m-61.34 11.84h61.34"/><path stroke-width="5" d="M337.25 815.23h36.67"/></g><rect width="85.75" height="91.22" x="235.02" y="729.55" fill="#34a853" rx="2.4" ry="2.4"/><g fill="none" stroke="#fff" stroke-miterlimit="10" stroke-width="5"><rect width="51.5" height="30.3" x="252.5" y="760.79" rx="1" ry="1"/><path d="M288.73 760.79v30.3m-36.23-15.41h36.11"/></g><path fill="#fabb05" d="M501.54 736.76a10.07 10.07 0 0 0-8.54-15.45 9.93 9.93 0 0 0-4.48 1.07l7.92 7.92a35.4 35.4 0 0 1 5.1 6.46z"/><path fill="#eda606" d="M482.93 731.4a10.08 10.08 0 0 0 18.61 5.36 35.4 35.4 0 0 0-5.09-6.46l-7.92-7.92a10.06 10.06 0 0 0-5.6 9.02z"/></g></svg>
